<svg class="svg-icon" style="width: 1em; height: 1em;vertical-align: middle;fill: currentColor;overflow: hidden;" viewBox="0 0 1024 1024" version="1.1" xmlns="http://www.w3.org/2000/svg"><path d="M640 725.333333v-21.333333c0-59.733333-46.933333-106.666667-106.666667-106.666667S426.666667 644.266667 426.666667 704v21.333333H384v-21.333333c0-81.066667 68.266667-149.333333 149.333333-149.333333s149.333333 68.266667 149.333334 149.333333v21.333333h-42.666667zM533.333333 170.666667c200.533333 0 362.666667 162.133333 362.666667 362.666666S733.866667 896 533.333333 896 170.666667 733.866667 170.666667 533.333333 332.8 170.666667 533.333333 170.666667z m0 42.666666C358.4 213.333333 213.333333 358.4 213.333333 533.333333S358.4 853.333333 533.333333 853.333333s320-145.066667 320-320S708.266667 213.333333 533.333333 213.333333z m64 256V384h42.666667v85.333333h-42.666667z m-170.666666 0V384h42.666666v85.333333h-42.666666z" fill="#444444" /></svg>